<?xml version="1.0" encoding="UTF-8"?>
<svg width="486px" height="420px" viewBox="0 0 486 420" version="1.1" xmlns="http://www.w3.org/2000/svg" xmlns:xlink="http://www.w3.org/1999/xlink">
    <!-- Generator: Sketch 51.2 (57519) - http://www.bohemiancoding.com/sketch -->
    <title>hypo_smiling</title>
    <desc>Created with Sketch.</desc>
    <defs>
        <path d="M422.034783,209.686957 C422.034783,325.513043 327.704348,419.373913 211.356522,419.373913 C95.0086957,419.373913 0.704347826,325.46087 0.704347826,209.686957 C0.704347826,93.9130435 95.0086957,0 211.304348,0 C327.6,0 421.982609,93.9130435 421.982609,209.686957" id="path-1"></path>
        <path d="M0.704347826,209.686957 C0.704347826,325.513043 95.0086957,419.373913 211.356522,419.373913 C327.704348,419.373913 422.034783,325.46087 422.034783,209.686957 C422.034783,93.9130435 327.704348,0 211.304348,0 C94.9043478,0 0.704347826,93.9130435 0.704347826,209.686957 Z" id="path-3"></path>
        <rect id="path-5" x="0.652173913" y="1.25217391" width="386.086957" height="451.304348"></rect>
        <rect id="path-7" x="2.08695652" y="0.130434783" width="107.217391" height="33.8608696"></rect>
        <rect id="path-9" x="0.652173913" y="1.25217391" width="422.608696" height="422.608696"></rect>
        <path d="M111.93913,43.5652174 L4.69565217,43.5652174 C3.5265425,43.565406 2.40641689,43.0956892 1.58712317,42.2616777 C0.767829457,41.4276663 0.31812845,40.2993558 0.339130435,39.1304348 L0.339130435,5.2173913 C0.339109513,4.06435443 0.798929692,2.95891946 1.61669462,2.14605134 C2.43445954,1.33318321 3.54263622,0.880010517 4.69565217,0.886956522 L111.93913,0.886956522 C113.092147,0.880010517 114.200323,1.33318321 115.018088,2.14605134 C115.835853,2.95891946 116.295673,4.06435443 116.295652,5.2173913 L116.295652,39.1304348 C116.316654,40.2993558 115.866953,41.4276663 115.047659,42.2616777 C114.228366,43.0956892 113.10824,43.565406 111.93913,43.5652174 Z M9.05217391,34.8782609 L107.582609,34.8782609 L107.582609,9.67826087 L9.05217391,9.67826087 L9.05217391,34.8782609 Z" id="path-11"></path>
        <rect id="path-13" x="0.652173913" y="1.25217391" width="422.608696" height="422.608696"></rect>
        <path d="M346.565217,113.73913 C294,180.573913 58.1217391,180.573913 5.55652174,113.73913 C-9.49565217,94.6173913 23.8173913,39.6521739 37.0956522,21.8086957 C51.6782609,2.08695652 127.565217,0.939130435 127.565217,0.939130435 L224.556522,0.939130435 C224.556522,0.939130435 300.443478,2.06086957 315.026087,21.8086957 C328.2,39.6521739 361.617391,94.6173913 346.565217,113.73913" id="path-15"></path>
        <rect id="path-17" x="0.652173913" y="1.25217391" width="422.608696" height="422.608696"></rect>
        <path d="M181.278261,173.426087 C116.869565,173.426087 37.3565217,159.808696 7.33043478,121.643478 C-12.8869565,95.9478261 38.2956522,25.1217391 38.8173913,24.4434783 C54.2086957,3.57391304 124.721739,1.95652174 132.730435,1.85217391 L229.8,1.85217391 C237.86087,1.85217391 308.373913,3.6 323.713043,24.4434783 C324.234783,25.1478261 375.417391,95.9478261 355.2,121.643478 C325.173913,159.808696 245.634783,173.426087 181.252174,173.426087 M229.721739,10.4347826 L132.782609,10.4347826 C112.330435,10.7217391 56.7130435,14.7391304 45.8347826,29.4782609 C28.9826087,52.3043478 2.4,101.191304 14.1913043,116.191304 C37.3565217,145.617391 102.886957,164.634783 181.278261,164.634783 C259.669565,164.634783 325.2,145.617391 348.365217,116.191304 C360.156522,101.191304 333.573913,52.3043478 316.721739,29.4782609 C305.843478,14.7391304 250.226087,10.7217391 229.721739,10.4347826" id="path-19"></path>
        <rect id="path-21" x="0.652173913" y="1.25217391" width="422.608696" height="422.608696"></rect>
        <path d="M27.1565217,83.8434783 C12.4870467,83.8869261 0.543988628,72.0604996 0.443478261,57.3913043 L0.443478261,28.226087 C0.443478261,13.4728804 12.4033152,1.51304348 27.1565217,1.51304348 C41.9097282,1.51304348 53.8695652,13.4728804 53.8695652,28.226087 L53.8695652,57.3913043 C53.7690548,72.0604996 41.8259969,83.8869261 27.1565217,83.8434783" id="path-23"></path>
        <rect id="path-25" x="0.652173913" y="1.25217391" width="422.608696" height="422.608696"></rect>
        <path d="M32.373913,93.3913043 C15.3144122,93.4204883 1.433453,79.6677329 1.30434783,62.6086957 L1.30434783,33.4434783 C1.30434783,16.2842312 15.214666,2.37391304 32.373913,2.37391304 C49.5331602,2.37391304 63.4434783,16.2842312 63.4434783,33.4434783 L63.4434783,62.6086957 C63.3143731,79.6677329 49.4334138,93.4204883 32.373913,93.3913043 M32.373913,11.1913043 C20.0614737,11.1768451 10.0605339,21.1311061 10.0173913,33.4434783 L10.0173913,62.6086957 C10.0173913,74.9702692 20.0384266,84.9913043 32.4,84.9913043 C44.7615736,84.9913043 54.7826087,74.9702692 54.7826087,62.6086957 L54.7826087,33.4434783 C54.7394661,21.1311061 44.7385263,11.1768451 32.426087,11.1913043" id="path-27"></path>
        <rect id="path-29" x="0.652173913" y="1.25217391" width="422.608696" height="422.608696"></rect>
        <path d="M28.1217391,83.8434783 C13.4522641,83.8869261 1.50920602,72.0604996 1.40869565,57.3913043 L1.40869565,28.226087 C1.40869627,13.4728809 13.368533,1.51304461 28.1217391,1.51304461 C42.8749453,1.51304461 54.8347821,13.4728809 54.8347826,28.226087 L54.8347826,57.3913043 C54.7916183,72.105511 42.8359808,84.0027715 28.1217391,83.973913" id="path-31"></path>
        <rect id="path-33" x="0.652173913" y="1.25217391" width="422.608696" height="422.608696"></rect>
        <path d="M33.3391304,93.3913043 C16.2796296,93.4204883 2.39867039,79.6677329 2.26956522,62.6086957 L2.26956522,33.4434783 C2.26956522,16.2842312 16.1798834,2.37391304 33.3391304,2.37391304 C50.4983776,2.37391304 64.4086957,16.2842312 64.4086957,33.4434783 L64.4086957,62.6086957 C64.3511585,79.7187451 50.4492522,93.5506166 33.3391304,93.5217391 M33.3391304,11.3217391 C21.0266911,11.3072798 11.0257513,21.2615408 10.9826087,33.573913 L10.9826087,62.6086957 C10.9826087,74.9558617 20.9919644,84.9652174 33.3391304,84.9652174 C45.6862964,84.9652174 55.6956522,74.9558617 55.6956522,62.6086957 L55.6956522,33.4434783 C55.6382121,21.1370821 45.6456605,11.1911703 33.3391304,11.1913043" id="path-35"></path>
        <rect id="path-37" x="0.652173913" y="1.25217391" width="422.608696" height="422.608696"></rect>
        <path d="M285.6,221.869565 C308.608696,209.269565 307.747826,173.895652 307.747826,146.217391 C307.747826,65.6869565 239.452174,0.391304348 155.191304,0.391304348 C70.9304348,0.391304348 2.60869565,65.6347826 2.60869565,146.086957 C2.60869565,173.817391 1.74782609,209.191304 24.7565217,221.73913 C81.8869565,253.043478 228.443478,253.043478 285.626087,221.73913" id="path-39"></path>
        <rect id="path-41" x="0.652173913" y="1.25217391" width="422.608696" height="422.608696"></rect>
        <path d="M157.8,254.791304 C106.095652,254.791304 54.3913043,246.965217 25.2782609,230.895652 C0.808695652,217.486957 0.834782609,182.426087 0.886956522,154.252174 L0.886956522,151.304348 C0.886956522,68.5043478 71.3217391,1.14782609 157.8,1.14782609 C244.278261,1.14782609 314.713043,68.5826087 314.713043,151.304348 L314.713043,154.173913 C314.713043,182.347826 314.713043,217.408696 290.321739,230.817391 C261.208696,246.756522 209.452174,254.713043 157.8,254.713043 M157.8,9.83478261 C76.0695652,9.91304348 9.6,73.3826087 9.6,151.304348 L9.6,154.173913 C9.6,180.078261 9.6,212.295652 29.4782609,223.2 C55.6956522,237.573913 103.669565,246.130435 157.8,246.130435 C211.930435,246.130435 259.904348,237.573913 286.121739,223.2 L288.208696,227.008696 L286.121739,223.2 C306.052174,212.295652 306.026087,180.078261 306,154.173913 L306,151.304348 C306,73.3043478 239.530435,9.83478261 157.8,9.83478261" id="path-43"></path>
        <rect id="path-45" x="0.652173913" y="1.25217391" width="422.608696" height="422.608696"></rect>
        <path d="M13.8,24.6521739 C48.9391304,-7.33043478 174.052174,-4.04347826 212.530435,24.6521739 C229.53913,37.2521739 227.113043,89.5826087 212.530435,104.504348 C195.93913,121.434783 30.3913043,121.434783 13.8,104.504348 C-0.782608696,89.5826087 -1.72173913,38.7652174 13.8,24.6521739" id="path-47"></path>
        <rect id="path-49" x="0.652173913" y="1.25217391" width="422.608696" height="422.608696"></rect>
        <path d="M115.773913,124.147826 C100.956522,124.147826 26.3478261,123.469565 13.2782609,110.13913 C3.36521739,99.9913043 0.234782609,78.3913043 0.808695652,62.973913 C1.04347826,54.4956522 2.76521739,33.7826087 13.4608696,24.0521739 C30.4173913,8.63478261 68.2434783,-0.286956522 114.573913,0.208695652 C159.26087,0.67826087 198.808696,9.70434783 217.747826,23.6869565 C227.66087,31.0434783 230.347826,47.3217391 231.052174,56.373913 C232.53913,75.0521739 228.6,99.4956522 218.269565,110.06087 C205.226087,123.391304 130.591304,124.069565 115.773913,124.069565 M19.2521739,30.3652174 C13.6173913,35.5826087 9.86086957,48.0521739 9.4173913,63.1304348 C9.02608696,80.8695652 13.0434783,97.5391304 19.5391304,104.086957 C24.9391304,109.565217 60.5217391,115.46087 115.773913,115.46087 C171.026087,115.46087 206.608696,109.565217 212.008696,104.086957 C219.313043,96.626087 223.852174,76.0173913 222.443478,57.1304348 C221.426087,44.2434783 217.826087,34.6173913 212.608696,30.7304348 C176.843478,4.17391304 53.4782609,-0.573913043 19.5652174,30.4434783" id="path-51"></path>
        <rect id="path-53" x="0.652173913" y="1.25217391" width="422.608696" height="422.608696"></rect>
        <path d="M1.72173913,1.22608696 L81.8608696,1.22608696 C82.3119425,1.18958882 82.7576755,1.34373899 83.0898282,1.6511043 C83.4219811,1.95846961 83.6101698,2.39093349 83.6086957,2.84347826 C83.1130435,9.80869565 78.8608696,37.1217391 42.2347826,37.1217391 C5.60869565,37.1217391 0.67826087,9.88695652 -1.83793952e-15,2.86956522 C-0.0164712113,2.41493305 0.162427489,1.97499007 0.491503949,1.66087163 C0.820580408,1.34675319 1.26836415,1.1884993 1.72173913,1.22608696" id="path-55"></path>
        <rect id="path-57" x="0.652173913" y="1.25217391" width="422.608696" height="422.608696"></rect>
        <path d="M47.4521739,46.6695652 C6.62608696,46.6695652 1.48695652,14.8956522 0.860869565,8.50434783 C0.712809042,6.89873896 1.25328687,5.30575166 2.34782609,4.12173913 C3.52416798,2.83138967 5.1930942,2.10123445 6.93913043,2.11304348 L87.1043478,2.11304348 C88.8171861,2.11132758 90.4565739,2.80853854 91.6434783,4.04347826 C92.7291279,5.2145303 93.2856616,6.78037041 93.1826087,8.37391304 C92.7391304,14.7652174 88.4086957,46.6695652 47.4521739,46.6695652 Z" id="path-59"></path>
        <rect id="path-61" x="0.652173913" y="1.25217391" width="422.608696" height="422.608696"></rect>
        <path d="M4.2,0.573913043 C3.74662503,0.536325386 3.29884127,0.694579281 2.96976483,1.00869772 C2.64068836,1.32281615 2.46178966,1.76275914 2.47826087,2.2173913 C3.13043478,9.23478261 8.11304348,36.5217391 44.5043478,36.5217391 C80.8956522,36.5217391 85.2,9.23478261 85.6956522,2.24347826 C85.6965848,1.79581251 85.5119335,1.36778235 85.1856524,1.06127593 C84.8593714,0.754769515 84.420647,0.597204261 83.973913,0.626086957" id="path-63"></path>
        <rect id="path-65" x="0.652173913" y="1.25217391" width="46.9565217" height="44.3478261"></rect>
        <path d="M44.5826087,23.4782609 C44.5826087,35.6381303 34.7250869,45.4956522 22.5652174,45.4956522 C10.4053479,45.4956522 0.547826087,35.6381303 0.547826087,23.4782609 C0.547826087,11.3183914 10.4053479,1.46086957 22.5652174,1.46086957 C34.7250869,1.46086957 44.5826087,11.3183914 44.5826087,23.4782609" id="path-67"></path>
        <rect id="path-69" x="0.652173913" y="1.25217391" width="86.0869565" height="39.1304348"></rect>
        <path d="M15,30.2869565 C14.8741804,32.6169496 13.5148818,34.7028279 11.4341389,35.7588613 C9.35339596,36.814895 6.86732306,36.6806468 4.91239975,35.4066874 C2.95747646,34.132728 1.83070212,31.9126017 1.95652174,29.5826087 C2.05196065,28.198511 2.23493534,26.8218443 2.50434783,25.4608696 C3.04324878,22.4550992 3.95461878,19.5281993 5.2173913,16.7478261 C8.75839894,8.02227699 17.3248859,2.39435464 26.7391304,2.60869565 C41.9478261,2.60869565 50.6086957,12.4956522 51.5217391,29.6347826 C51.7162393,33.2366395 48.9540308,36.3141952 45.3521739,36.5086954 C41.750317,36.7031956 38.6727613,33.9409873 38.4782609,30.3391304 C37.9304348,19.6434783 34.4347826,15.6521739 26.7391304,15.6521739 C22.4098981,15.5089262 18.4940767,18.207668 17.0869565,22.3043478 C16.2748312,24.1035807 15.6877883,25.9961368 15.3391304,27.9391304 C15.1640681,28.7115193 15.0506677,29.4965995 15,30.2869565 Z" id="path-71"></path>
        <path d="M15,30.2869565 C14.8741804,32.6169496 13.5148818,34.7028279 11.4341389,35.7588613 C9.35339596,36.814895 6.86732306,36.6806468 4.91239975,35.4066874 C2.95747646,34.132728 1.83070212,31.9126017 1.95652174,29.5826087 C2.08639174,28.1962688 2.30422192,26.8195821 2.60869565,25.4608696 C3.11418983,22.4597227 3.99046177,19.5329744 5.2173913,16.7478261 C8.75839894,8.02227699 17.3248859,2.39435464 26.7391304,2.60869565 C41.9478261,2.60869565 50.6086957,12.4956522 51.5217391,29.6347826 C51.7162393,33.2366395 48.9540308,36.3141952 45.3521739,36.5086954 C41.750317,36.7031956 38.6727613,33.9409873 38.4782609,30.3391304 C37.9304348,19.6434783 34.4347826,15.6521739 26.7391304,15.6521739 C22.4098981,15.5089262 18.4940767,18.207668 17.0869565,22.3043478 C16.2748312,24.1035807 15.6877883,25.9961368 15.3391304,27.9391304 C15.1640681,28.7115193 15.0506677,29.4965995 15,30.2869565 Z" id="path-73"></path>
        <path d="M35.6608696,0.756521739 L0.208695652,0.756521739" id="path-75"></path>
        <path d="M40.8782609,10.4347826 L5.42608696,10.4347826 C3.073419,10.2555238 1.25591581,8.2942699 1.25591581,5.93478261 C1.25591581,3.57529531 3.073419,1.61404144 5.42608696,1.43478261 L40.8782609,1.43478261 C43.230929,1.61404144 45.048432,3.57529531 45.048432,5.93478261 C45.048432,8.2942699 43.230929,10.2555238 40.8782609,10.4347826" id="path-77"></path>
        <path d="M1.74782609,13.8 C2.00479374,7.05239883 7.63776822,1.76463064 14.3881278,1.9343355 C21.1384873,2.10404036 26.4986437,7.66817718 26.41623,14.4201667 C26.3338161,21.1721561 20.8394472,26.6038043 14.0869565,26.6086957 C7.1482745,26.4659838 1.63140791,20.739173 1.74782609,13.8" id="path-79"></path>
        <path d="M19.3043478,36.3130435 C12.2594533,36.5575823 5.77104436,32.5022032 2.90394232,26.0624779 C0.0368402684,19.6227524 1.36479392,12.0873633 6.26053998,7.01567635 C11.1562861,1.94398941 18.6401146,0.350922931 25.1770145,2.98896712 C31.7139143,5.6270113 35.9957572,11.9682552 36,19.0173913 C36.1599097,28.4015559 28.68831,36.141666 19.3043478,36.3130435 M19.3043478,10.7217391 C15.9254097,10.6047882 12.8135691,12.5501271 11.4386612,15.6389017 C10.0637531,18.7276763 10.7009043,22.3418059 13.0491651,24.7742063 C15.3974259,27.2066069 18.9868964,27.9705412 22.1221399,26.7051759 C25.2573833,25.4398107 27.3110202,22.3983522 27.3130435,19.0173913 C27.3857494,14.5176458 23.803865,10.8074201 19.3043478,10.7217391" id="path-81"></path>
        <path d="M0.704347826,0.756521739 L36.1565217,0.756521739" id="path-83"></path>
        <path d="M41.373913,10.4347826 L5.92173913,10.4347826 C3.56907117,10.2555238 1.75156798,8.2942699 1.75156798,5.93478261 C1.75156798,3.57529531 3.56907117,1.61404144 5.92173913,1.43478261 L41.373913,1.43478261 C43.7265811,1.61404144 45.5440842,3.57529531 45.5440842,5.93478261 C45.5440842,8.2942699 43.7265811,10.2555238 41.373913,10.4347826" id="path-85"></path>
        <path d="M1.72173913,13.8 C1.60543448,6.85084218 7.1380141,1.11983669 14.0869565,0.991304348 C21.1610038,0.991304348 26.8956522,6.72595273 26.8956522,13.8 C26.8956522,20.8740473 21.1610038,26.6086957 14.0869565,26.6086957 C7.1380141,26.4801634 1.60543448,20.7491578 1.72173913,13.8" id="path-87"></path>
        <path d="M19.3043478,36.3130435 C9.7522229,36.3130435 2.00869565,28.5695163 2.00869565,19.0173913 C2.00869565,9.46526637 9.7522229,1.72173913 19.3043478,1.72173913 C28.8564728,1.72173913 36.6,9.46526637 36.6,19.0173913 C36.6,28.5695163 28.8564728,36.3130435 19.3043478,36.3130435 M19.3043478,10.7217391 C14.7227857,10.7217391 11.0086957,14.4358291 11.0086957,19.0173913 C11.0086957,23.5989535 14.7227857,27.3130435 19.3043478,27.3130435 C23.88591,27.3130435 27.6,23.5989535 27.6,19.0173913 C27.6,14.4358291 23.88591,10.7217391 19.3043478,10.7217391" id="path-89"></path>
    </defs>
    <g id="Page-1" stroke="none" stroke-width="1" fill="none" fill-rule="evenodd">
        <g id="hypo_smiling" transform="translate(-2.000000, 0.000000)">
            <g id="Clipped" transform="translate(33.913043, 0.000000)">
                <g id="Rectangle-path-Clipped">
                    <mask id="mask-2" fill="white">
                        <use xlink:href="#path-1"></use>
                    </mask>
                    <g id="path-1"></g>
                    <rect id="Rectangle-path" fill="#00BDB4" fill-rule="nonzero" mask="url(#mask-2)" x="-12.3391304" y="-13.0434783" width="447.417391" height="445.46087"></rect>
                </g>
            </g>
            <g id="Clipped" transform="translate(33.913043, 0.000000)">
                <g>
                    <mask id="mask-4" fill="white">
                        <use xlink:href="#path-3"></use>
                    </mask>
                    <g id="path-3"></g>
                    <g id="Group" mask="url(#mask-4)">
                        <g transform="translate(18.260870, 41.739130)" id="Group-Clipped">
                            <g>
                                <mask id="mask-6" fill="white">
                                    <use xlink:href="#path-5"></use>
                                </mask>
                                <g id="path-5"></g>
                                <g id="Group" mask="url(#mask-6)">
                                    <g transform="translate(10.434783, 2.608696)" id="Clipped">
                                        <g>
                                            <g id="Group" transform="translate(122.608696, 245.217391)">
                                                <g id="Clipped">
                                                    <mask id="mask-8" fill="white">
                                                        <use xlink:href="#path-7"></use>
                                                    </mask>
                                                    <g id="path-7"></g>
                                                    <g id="Group" mask="url(#mask-8)">
                                                        <g transform="translate(-151.304348, -292.173913)" id="Rectangle-path-Clipped">
                                                            <g>
                                                                <mask id="mask-10" fill="white">
                                                                    <use xlink:href="#path-9"></use>
                                                                </mask>
                                                                <g id="path-9"></g>
                                                                <rect id="Rectangle-path" fill="#FFFFFF" fill-rule="nonzero" mask="url(#mask-10)" x="140.347826" y="279.26087" width="133.304348" height="59.9478261"></rect>
                                                            </g>
                                                        </g>
                                                    </g>
                                                </g>
                                            </g>
                                            <g id="Group" transform="translate(120.000000, 240.000000)">
                                                <g id="Clipped">
                                                    <mask id="mask-12" fill="white">
                                                        <use xlink:href="#path-11"></use>
                                                    </mask>
                                                    <g id="path-11"></g>
                                                    <g id="Group" mask="url(#mask-12)">
                                                        <g transform="translate(-148.695652, -286.956522)" id="Rectangle-path-Clipped">
                                                            <g>
                                                                <mask id="mask-14" fill="white">
                                                                    <use xlink:href="#path-13"></use>
                                                                </mask>
                                                                <g id="path-13"></g>
                                                                <rect id="Rectangle-path" fill="#233345" fill-rule="nonzero" mask="url(#mask-14)" x="135.991304" y="274.930435" width="142.043478" height="68.6347826"></rect>
                                                            </g>
                                                        </g>
                                                    </g>
                                                </g>
                                            </g>
                                            <g id="Group" transform="translate(7.826087, 271.304348)">
                                                <g id="Clipped">
                                                    <mask id="mask-16" fill="white">
                                                        <use xlink:href="#path-15"></use>
                                                    </mask>
                                                    <g id="path-15"></g>
                                                    <g id="Group" mask="url(#mask-16)">
                                                        <g transform="translate(-36.521739, -318.260870)" id="Rectangle-path-Clipped">
                                                            <g>
                                                                <mask id="mask-18" fill="white">
                                                                    <use xlink:href="#path-17"></use>
                                                                </mask>
                                                                <g id="path-17"></g>
                                                                <rect id="Rectangle-path" fill="#FFFFFF" fill-rule="nonzero" mask="url(#mask-18)" x="25.2" y="306.182609" width="374.73913" height="188.973913"></rect>
                                                            </g>
                                                        </g>
                                                    </g>
                                                </g>
                                            </g>
                                            <g id="Group" transform="translate(2.608696, 266.086957)">
                                                <g id="Clipped">
                                                    <mask id="mask-20" fill="white">
                                                        <use xlink:href="#path-19"></use>
                                                    </mask>
                                                    <g id="path-19"></g>
                                                    <g id="Group" mask="url(#mask-20)">
                                                        <g transform="translate(-31.304348, -313.043478)" id="Rectangle-path-Clipped">
                                                            <g>
                                                                <mask id="mask-22" fill="white">
                                                                    <use xlink:href="#path-21"></use>
                                                                </mask>
                                                                <g id="path-21"></g>
                                                                <rect id="Rectangle-path" fill="#233345" fill-rule="nonzero" mask="url(#mask-22)" x="20.8695652" y="301.852174" width="383.426087" height="197.66087"></rect>
                                                            </g>
                                                        </g>
                                                    </g>
                                                </g>
                                            </g>
                                            <g id="Group" transform="translate(5.217391, 117.391304)">
                                                <g id="Clipped">
                                                    <mask id="mask-24" fill="white">
                                                        <use xlink:href="#path-23"></use>
                                                    </mask>
                                                    <g id="path-23"></g>
                                                    <g id="Group" mask="url(#mask-24)">
                                                        <g transform="translate(-33.913043, -164.347826)" id="Rectangle-path-Clipped">
                                                            <g>
                                                                <mask id="mask-26" fill="white">
                                                                    <use xlink:href="#path-25"></use>
                                                                </mask>
                                                                <g id="path-25"></g>
                                                                <rect id="Rectangle-path" fill="#FFFFFF" fill-rule="nonzero" mask="url(#mask-26)" x="21.3130435" y="152.947826" width="79.5130435" height="108.286957"></rect>
                                                            </g>
                                                        </g>
                                                    </g>
                                                </g>
                                            </g>
                                            <g id="Group" transform="translate(0.000000, 112.173913)">
                                                <g id="Clipped">
                                                    <mask id="mask-28" fill="white">
                                                        <use xlink:href="#path-27"></use>
                                                    </mask>
                                                    <g id="path-27"></g>
                                                    <g id="Group" mask="url(#mask-28)">
                                                        <g transform="translate(-28.695652, -159.130435)" id="Rectangle-path-Clipped">
                                                            <g>
                                                                <mask id="mask-30" fill="white">
                                                                    <use xlink:href="#path-29"></use>
                                                                </mask>
                                                                <g id="path-29"></g>
                                                                <rect id="Rectangle-path" fill="#233345" fill-rule="nonzero" mask="url(#mask-30)" x="16.9565217" y="148.617391" width="88.226087" height="116.973913"></rect>
                                                            </g>
                                                        </g>
                                                    </g>
                                                </g>
                                            </g>
                                            <g id="Group" transform="translate(305.217391, 117.391304)">
                                                <g id="Clipped">
                                                    <mask id="mask-32" fill="white">
                                                        <use xlink:href="#path-31"></use>
                                                    </mask>
                                                    <g id="path-31"></g>
                                                    <g id="Group" mask="url(#mask-32)">
                                                        <g transform="translate(-333.913043, -164.347826)" id="Rectangle-path-Clipped">
                                                            <g>
                                                                <mask id="mask-34" fill="white">
                                                                    <use xlink:href="#path-33"></use>
                                                                </mask>
                                                                <g id="path-33"></g>
                                                                <rect id="Rectangle-path" fill="#FFFFFF" fill-rule="nonzero" mask="url(#mask-34)" x="322.278261" y="152.947826" width="79.5130435" height="108.286957"></rect>
                                                            </g>
                                                        </g>
                                                    </g>
                                                </g>
                                            </g>
                                            <g id="Group" transform="translate(300.000000, 112.173913)">
                                                <g id="Clipped">
                                                    <mask id="mask-36" fill="white">
                                                        <use xlink:href="#path-35"></use>
                                                    </mask>
                                                    <g id="path-35"></g>
                                                    <g id="Group" mask="url(#mask-36)">
                                                        <g transform="translate(-328.695652, -159.130435)" id="Rectangle-path-Clipped">
                                                            <g>
                                                                <mask id="mask-38" fill="white">
                                                                    <use xlink:href="#path-37"></use>
                                                                </mask>
                                                                <g id="path-37"></g>
                                                                <rect id="Rectangle-path" fill="#233345" fill-rule="nonzero" mask="url(#mask-38)" x="317.921739" y="148.617391" width="88.226087" height="116.973913"></rect>
                                                            </g>
                                                        </g>
                                                    </g>
                                                </g>
                                            </g>
                                            <g id="Group" transform="translate(28.695652, 5.217391)">
                                                <g id="Clipped">
                                                    <mask id="mask-40" fill="white">
                                                        <use xlink:href="#path-39"></use>
                                                    </mask>
                                                    <g id="path-39"></g>
                                                    <g id="Group" mask="url(#mask-40)">
                                                        <g transform="translate(-57.391304, -52.173913)" id="Rectangle-path-Clipped">
                                                            <g>
                                                                <mask id="mask-42" fill="white">
                                                                    <use xlink:href="#path-41"></use>
                                                                </mask>
                                                                <g id="path-41"></g>
                                                                <rect id="Rectangle-path" fill="#FFFFFF" fill-rule="nonzero" mask="url(#mask-42)" x="46.9826087" y="39.4695652" width="331.226087" height="271.069565"></rect>
                                                            </g>
                                                        </g>
                                                    </g>
                                                </g>
                                            </g>
                                            <g id="Group" transform="translate(26.086957, 0.000000)">
                                                <g id="Clipped">
                                                    <mask id="mask-44" fill="white">
                                                        <use xlink:href="#path-43"></use>
                                                    </mask>
                                                    <g id="path-43"></g>
                                                    <g id="Group" mask="url(#mask-44)">
                                                        <g transform="translate(-54.782609, -46.956522)" id="Rectangle-path-Clipped">
                                                            <g>
                                                                <mask id="mask-46" fill="white">
                                                                    <use xlink:href="#path-45"></use>
                                                                </mask>
                                                                <g id="path-45"></g>
                                                                <rect id="Rectangle-path" fill="#233345" fill-rule="nonzero" mask="url(#mask-46)" x="42.626087" y="35.1391304" width="339.93913" height="279.652174"></rect>
                                                            </g>
                                                        </g>
                                                    </g>
                                                </g>
                                            </g>
                                            <g id="Group" transform="translate(70.434783, 88.695652)">
                                                <g id="Clipped">
                                                    <mask id="mask-48" fill="white">
                                                        <use xlink:href="#path-47"></use>
                                                    </mask>
                                                    <g id="path-47"></g>
                                                    <g id="Group" mask="url(#mask-48)">
                                                        <g transform="translate(-99.130435, -135.652174)" id="Rectangle-path-Clipped">
                                                            <g>
                                                                <mask id="mask-50" fill="white">
                                                                    <use xlink:href="#path-49"></use>
                                                                </mask>
                                                                <g id="path-49"></g>
                                                                <rect id="Rectangle-path" fill="#E1F4EE" fill-rule="nonzero" mask="url(#mask-50)" x="88.5913043" y="124.513043" width="247.982609" height="141.365217"></rect>
                                                            </g>
                                                        </g>
                                                    </g>
                                                </g>
                                            </g>
                                            <g id="Group" transform="translate(67.826087, 86.086957)">
                                                <g id="Clipped">
                                                    <mask id="mask-52" fill="white">
                                                        <use xlink:href="#path-51"></use>
                                                    </mask>
                                                    <g id="path-51"></g>
                                                    <g id="Group" mask="url(#mask-52)">
                                                        <g transform="translate(-96.521739, -133.043478)" id="Rectangle-path-Clipped">
                                                            <g>
                                                                <mask id="mask-54" fill="white">
                                                                    <use xlink:href="#path-53"></use>
                                                                </mask>
                                                                <g id="path-53"></g>
                                                                <rect id="Rectangle-path" fill="#233345" fill-rule="nonzero" mask="url(#mask-54)" x="84.2347826" y="120.182609" width="256.669565" height="150.052174"></rect>
                                                            </g>
                                                        </g>
                                                    </g>
                                                </g>
                                            </g>
                                            <g id="Group" transform="translate(140.869565, 156.521739)">
                                                <g id="Clipped">
                                                    <mask id="mask-56" fill="white">
                                                        <use xlink:href="#path-55"></use>
                                                    </mask>
                                                    <g id="path-55"></g>
                                                    <g id="Group" mask="url(#mask-56)">
                                                        <g transform="translate(-169.565217, -203.478261)" id="Rectangle-path-Clipped">
                                                            <g>
                                                                <mask id="mask-58" fill="white">
                                                                    <use xlink:href="#path-57"></use>
                                                                </mask>
                                                                <g id="path-57"></g>
                                                                <rect id="Rectangle-path" fill="#233345" fill-rule="nonzero" mask="url(#mask-58)" x="156.495652" y="191.66087" width="109.721739" height="61.9826087"></rect>
                                                            </g>
                                                        </g>
                                                    </g>
                                                </g>
                                            </g>
                                            <g id="Group" transform="translate(135.652174, 151.304348)">
                                                <g id="Clipped">
                                                    <mask id="mask-60" fill="white">
                                                        <use xlink:href="#path-59"></use>
                                                    </mask>
                                                    <g id="path-59"></g>
                                                    <g id="Group" mask="url(#mask-60)">
                                                        <g transform="translate(-164.347826, -198.260870)" id="Rectangle-path-Clipped">
                                                            <g>
                                                                <mask id="mask-62" fill="white">
                                                                    <use xlink:href="#path-61"></use>
                                                                </mask>
                                                                <g id="path-61"></g>
                                                                <rect id="Rectangle-path" fill="#233345" fill-rule="nonzero" mask="url(#mask-62)" x="152.13913" y="187.330435" width="118.434783" height="70.6434783"></rect>
                                                            </g>
                                                        </g>
                                                    </g>
                                                </g>
                                            </g>
                                        </g>
                                    </g>
                                </g>
                            </g>
                        </g>
                    </g>
                </g>
            </g>
            <g id="Clipped" transform="translate(200.869565, 203.478261)">
                <g>
                    <mask id="mask-64" fill="white">
                        <use xlink:href="#path-63"></use>
                    </mask>
                    <g id="path-63"></g>
                    <g id="Group" mask="url(#mask-64)">
                        <g transform="translate(5.217391, 13.043478)" id="Clipped-Clipped">
                            <g>
                                <mask id="mask-66" fill="white">
                                    <use xlink:href="#path-65"></use>
                                </mask>
                                <g id="path-65"></g>
                                <g id="Clipped" mask="url(#mask-66)">
                                    <g transform="translate(2.608696, 0.000000)" id="Group">
                                        <g>
                                            <g id="Clipped-Clipped">
                                                <mask id="mask-68" fill="white">
                                                    <use xlink:href="#path-67"></use>
                                                </mask>
                                                <g id="path-67"></g>
                                                <g id="Clipped" mask="url(#mask-68)">
                                                    <g transform="translate(-7.826087, -15.652174)" id="Group">
                                                        <g>
                                                            <g id="Rectangle-path-Clipped">
                                                                <mask id="mask-70" fill="white">
                                                                    <use xlink:href="#path-69"></use>
                                                                </mask>
                                                                <g id="path-69"></g>
                                                                <rect id="Rectangle-path" fill="#FFFFFF" fill-rule="nonzero" mask="url(#mask-70)" x="-4.66956522" y="4.0173913" width="70.0956522" height="70.0956522"></rect>
                                                            </g>
                                                        </g>
                                                    </g>
                                                </g>
                                            </g>
                                        </g>
                                    </g>
                                </g>
                            </g>
                        </g>
                    </g>
                </g>
            </g>
            <g id="Clipped" transform="translate(281.739130, 151.304348)">
                <g id="Rectangle-path-Clipped">
                    <mask id="mask-72" fill="white">
                        <use xlink:href="#path-71"></use>
                    </mask>
                    <g id="path-71"></g>
                    <rect id="Rectangle-path" fill="#17223C" fill-rule="nonzero" mask="url(#mask-72)" x="-11.0869565" y="-10.4869565" width="75.6521739" height="60"></rect>
                </g>
            </g>
            <g id="Clipped" transform="translate(153.913043, 151.304348)">
                <g id="Rectangle-path-Clipped">
                    <mask id="mask-74" fill="white">
                        <use xlink:href="#path-73"></use>
                    </mask>
                    <g id="path-73"></g>
                    <rect id="Rectangle-path" fill="#17223C" fill-rule="nonzero" mask="url(#mask-74)" x="-11.0869565" y="-10.4869565" width="75.6521739" height="60"></rect>
                </g>
            </g>
            <g id="Clipped" transform="translate(420.000000, 211.304348)">
                <g id="Rectangle-path-Clipped">
                    <mask id="mask-76" fill="white">
                        <use xlink:href="#path-75"></use>
                    </mask>
                    <g id="path-75"></g>
                    <rect id="Rectangle-path" fill="#FFFFFF" fill-rule="nonzero" mask="url(#mask-76)" x="-12.8347826" y="-12.2869565" width="61.5391304" height="26.0869565"></rect>
                </g>
            </g>
            <g id="Clipped" transform="translate(417.391304, 206.086957)">
                <g id="Rectangle-path-Clipped">
                    <mask id="mask-78" fill="white">
                        <use xlink:href="#path-77"></use>
                    </mask>
                    <g id="path-77"></g>
                    <rect id="Rectangle-path" fill="#233345" fill-rule="nonzero" mask="url(#mask-78)" x="-11.9478261" y="-11.5565217" width="70.226087" height="35.0869565"></rect>
                </g>
            </g>
            <g id="Clipped" transform="translate(453.913043, 198.260870)">
                <g id="Rectangle-path-Clipped">
                    <mask id="mask-80" fill="white">
                        <use xlink:href="#path-79"></use>
                    </mask>
                    <g id="path-79"></g>
                    <rect id="Rectangle-path" fill="#FFFFFF" fill-rule="nonzero" mask="url(#mask-80)" x="-11.2956522" y="-12.0521739" width="50.7652174" height="51.7043478"></rect>
                </g>
            </g>
            <g id="Clipped" transform="translate(451.304348, 193.043478)">
                <g id="Rectangle-path-Clipped">
                    <mask id="mask-82" fill="white">
                        <use xlink:href="#path-81"></use>
                    </mask>
                    <g id="path-81"></g>
                    <rect id="Rectangle-path" fill="#233345" fill-rule="nonzero" mask="url(#mask-82)" x="-10.4086957" y="-11.3217391" width="59.4521739" height="60.7043478"></rect>
                </g>
            </g>
            <g id="Clipped" transform="translate(31.304348, 211.304348)">
                <g id="Rectangle-path-Clipped">
                    <mask id="mask-84" fill="white">
                        <use xlink:href="#path-83"></use>
                    </mask>
                    <g id="path-83"></g>
                    <rect id="Rectangle-path" fill="#FFFFFF" fill-rule="nonzero" mask="url(#mask-84)" x="-12.3391304" y="-12.2869565" width="61.5391304" height="26.0869565"></rect>
                </g>
            </g>
            <g id="Clipped" transform="translate(26.086957, 206.086957)">
                <g id="Rectangle-path-Clipped">
                    <mask id="mask-86" fill="white">
                        <use xlink:href="#path-85"></use>
                    </mask>
                    <g id="path-85"></g>
                    <rect id="Rectangle-path" fill="#233345" fill-rule="nonzero" mask="url(#mask-86)" x="-11.4521739" y="-11.5565217" width="70.226087" height="35.0869565"></rect>
                </g>
            </g>
            <g id="Clipped" transform="translate(5.217391, 198.260870)">
                <g id="Rectangle-path-Clipped">
                    <mask id="mask-88" fill="white">
                        <use xlink:href="#path-87"></use>
                    </mask>
                    <g id="path-87"></g>
                    <rect id="Rectangle-path" fill="#FFFFFF" fill-rule="nonzero" mask="url(#mask-88)" x="-11.3217391" y="-12.0521739" width="50.7652174" height="51.7043478"></rect>
                </g>
            </g>
            <g id="Clipped" transform="translate(0.000000, 193.043478)">
                <g id="Rectangle-path-Clipped">
                    <mask id="mask-90" fill="white">
                        <use xlink:href="#path-89"></use>
                    </mask>
                    <g id="path-89"></g>
                    <rect id="Rectangle-path" fill="#233345" fill-rule="nonzero" mask="url(#mask-90)" x="-10.4347826" y="-11.3217391" width="59.4521739" height="60.7043478"></rect>
                </g>
            </g>
        </g>
    </g>
</svg>